<svg width="18" height="19" viewBox="0 0 18 19" fill="none" xmlns="http://www.w3.org/2000/svg">
<path d="M3.62 8.72701C5.06 11.557 7.38 13.867 10.21 15.317L12.41 13.117C12.68 12.847 13.08 12.757 13.43 12.877C14.55 13.247 15.76 13.447 17 13.447C17.55 13.447 18 13.897 18 14.447V17.937C18 18.487 17.55 18.937 17 18.937C7.61 18.937 0 11.327 0 1.93701C0 1.38701 0.45 0.937012 1 0.937012H4.5C5.05 0.937012 5.5 1.38701 5.5 1.93701C5.5 3.18701 5.7 4.38701 6.07 5.50701C6.18 5.85701 6.1 6.24701 5.82 6.52701L3.62 8.72701Z" fill="#1A1C1E"/>
</svg>
