<svg width="10" height="13" viewBox="0 0 10 13" fill="none" xmlns="http://www.w3.org/2000/svg">
<path d="M3.2 5.50962H2.13333V6.70962H3.2V5.50962ZM5.33333 5.50962H4.26667V6.70962H5.33333V5.50962ZM7.46667 5.50962H6.4V6.70962H7.46667V5.50962ZM8.53333 1.30962H8V0.109619H6.93333V1.30962H2.66667V0.109619H1.6V1.30962H1.06667C0.474667 1.30962 0.00533333 1.84962 0.00533333 2.50962L0 10.9096C0 11.5696 0.474667 12.1096 1.06667 12.1096H8.53333C9.12 12.1096 9.6 11.5696 9.6 10.9096V2.50962C9.6 1.84962 9.12 1.30962 8.53333 1.30962ZM8.53333 10.9096H1.06667V4.30962H8.53333V10.9096Z" fill="#5D5E61"/>
</svg>
