<svg width="12" height="13" viewBox="0 0 12 13" fill="none" xmlns="http://www.w3.org/2000/svg">
<g clip-path="url(#clip0_743_1532)">
<path d="M7.5 5.60962V2.60962L6 1.10962L4.5 2.60962V3.60962H1.5V10.6096H10.5V5.60962H7.5ZM3.5 9.60962H2.5V8.60962H3.5V9.60962ZM3.5 7.60962H2.5V6.60962H3.5V7.60962ZM3.5 5.60962H2.5V4.60962H3.5V5.60962ZM6.5 9.60962H5.5V8.60962H6.5V9.60962ZM6.5 7.60962H5.5V6.60962H6.5V7.60962ZM6.5 5.60962H5.5V4.60962H6.5V5.60962ZM6.5 3.60962H5.5V2.60962H6.5V3.60962ZM9.5 9.60962H8.5V8.60962H9.5V9.60962ZM9.5 7.60962H8.5V6.60962H9.5V7.60962Z" fill="#5D5E61"/>
</g>
<defs>
<clipPath id="clip0_743_1532">
<rect width="12" height="12" fill="white" transform="translate(0 0.109619)"/>
</clipPath>
</defs>
</svg>
