<svg width="12" height="13" viewBox="0 0 12 13" fill="none" xmlns="http://www.w3.org/2000/svg">
<g clip-path="url(#clip0_743_1232)">
<path d="M8 5.60962C8.83 5.60962 9.495 4.93962 9.495 4.10962C9.495 3.27962 8.83 2.60962 8 2.60962C7.17 2.60962 6.5 3.27962 6.5 4.10962C6.5 4.93962 7.17 5.60962 8 5.60962ZM4 5.60962C4.83 5.60962 5.495 4.93962 5.495 4.10962C5.495 3.27962 4.83 2.60962 4 2.60962C3.17 2.60962 2.5 3.27962 2.5 4.10962C2.5 4.93962 3.17 5.60962 4 5.60962ZM4 6.60962C2.835 6.60962 0.5 7.19462 0.5 8.35962V9.60962H7.5V8.35962C7.5 7.19462 5.165 6.60962 4 6.60962ZM8 6.60962C7.855 6.60962 7.69 6.61962 7.515 6.63462C8.095 7.05462 8.5 7.61962 8.5 8.35962V9.60962H11.5V8.35962C11.5 7.19462 9.165 6.60962 8 6.60962Z" fill="#5D5E61"/>
</g>
<defs>
<clipPath id="clip0_743_1232">
<rect width="12" height="12" fill="white" transform="translate(0 0.109619)"/>
</clipPath>
</defs>
</svg>
